<?xml version="1.0"?>
<svg width="1100.99998" height="666.0509" xmlns="http://www.w3.org/2000/svg" xmlns:svg="http://www.w3.org/2000/svg" xmlns:se="http://svg-edit.googlecode.com" data-name="Layer 1">
 <title>dev_focus</title>
 <g class="layer">
  <title>Layer 1</title>
  <circle cx="633.92942" cy="214.02012" fill="#2f2e41" id="svg_1" r="36.39575"/>
  <path d="m693.56939,295.60077a36.40082,36.40082 0 0 1 32.03938,53.66882a36.38708,36.38708 0 1 0 -60.45438,-39.98247a36.306,36.306 0 0 1 28.415,-13.68635z" fill="#2f2e41" id="svg_2" transform="translate(-49.50001 -116.97455)"/>
  <circle cx="565.91872" cy="107.03051" fill="#2f2e41" id="svg_3" r="106.9125"/>
  <path d="m531.5098,157.67094a106.89328,106.89328 0 0 1 148.1672,-11.20994c-0.87424,-0.83106 -1.73925,-1.66885 -2.64768,-2.47643a106.91251,106.91251 0 0 0 -142.06611,159.80725c0.90844,0.80758 1.84178,1.56849 2.76952,2.33937a106.89337,106.89337 0 0 1 -6.22293,-148.46025z" fill="#2f2e41" id="svg_4" transform="translate(-49.50001 -116.97455)"/>
  <circle cx="565.01268" cy="144.17807" fill="#9f626b" id="svg_5" r="68.8589"/>
  <path d="m516.086619,165.922992s9.06039,83.35551 -5.43622,92.41589s83.35551,21.74492 83.35551,21.74492s-14.49662,-90.60382 21.74491,-114.16081l-99.6642,0z" fill="#9f626b" id="svg_6"/>
  <path d="m652.5663,360.81682s26.98248,-12.60018 -11.87783,-8.11216s-72.38788,-12.72672 -72.38788,-12.72672s-11.77434,-11.77849 -13.58641,0.906s5.43623,36.24153 -34.42945,39.86568s-76.10721,-7.2483 -90.60382,19.93284s-7.2483,144.9661 -7.2483,144.9661s27.18114,97.85213 48.92606,112.34874s212.01292,-5.43623 212.01292,-5.43623l54.36229,-97.85207l0,-114.16082s-7.2483,-39.86568 -57.98644,-28.99322c0,0 -32.61737,-7.24831 -30.8053,-23.557s3.62416,-27.18114 3.62416,-27.18114z" fill="#d0cde1" id="svg_7" transform="translate(-49.50001 -116.97455)"/>
  <path d="m478.55,727.24542c1.12,-4.88 1.87,-7.64 1.87,-7.64l-0.57995,-3.97l-5.97,-40.54l-2.51,-17.1c21.74,-9.06 27.18,-50.74 27.18,-50.74l0.82,-0.49l3.71,-2.22l0,-0.01l13.32,-7.99l0.27,-0.16l5.38,3.58l10.93,7.29c38.24,28.12 77.18,27.62 101.21,23.19c14.69,-2.71 23.82,-6.88 23.82,-6.88l26.36,-8.79l0.82,-0.27l0.81,0.12l15.46,2.34l0.28,0.05l1.28,0.19l-3.58,24.75l-5.19,35.97c13.71,7.26 25.9,20.9 36.56,37.71q3.54,5.58 6.86,11.61c2.88,5.2 5.63,10.61 8.25,16.15c0.32,0.66 0.63,1.33 0.94,2c1.01,2.17 2.01,4.36 2.98005,6.56l-276.0801,0c0.36,-2.21 0.72,-4.32 1.07,-6.35a1.54822,1.54822 0 0 0 0.04,-0.21c0.13,-0.68 0.25,-1.34 0.36,-2c1.22,-6.60001 2.4,-12.10996 3.33,-16.15z" fill="#2f2e41" id="svg_8" transform="translate(-49.50001 -116.97455)"/>
  <path d="m467.73451,378.93759s19.93284,36.24152 12.68454,81.54343s21.74495,157.65064 21.74495,157.65064l21.74492,-5.43623s-14.49661,-94.228 -10.87246,-115.97289s3.62415,-106.9125 -14.49661,-117.78495s-30.80534,0 -30.80534,0z" fill="#2f2e41" id="svg_9" transform="translate(-49.50001 -116.97455)"/>
  <path d="m678.47286,416.59979l7.61685,200.62583l14.49661,9.06038s20.83888,-220.16727 9.96642,-220.16727l-22.12254,0a9.97043,9.97043 0 0 0 -9.95734,10.48106z" fill="#2f2e41" id="svg_10" transform="translate(-49.50001 -116.97455)"/>
  <circle cx="462.63037" cy="487.56653" fill="#f50057" id="svg_11" r="9.06038"/>
  <circle cx="643.838" cy="496.62692" fill="#f50057" id="svg_12" r="9.06038"/>
  <polygon fill="#2f2e41" id="svg_13" points="506.12 58.104 506.12 126.963 522.067 126.963 542.362 105.218 539.644 126.963 610.133 126.963 605.784 105.218 614.482 126.963 625.717 126.963 625.717 58.104 506.12 58.104"/>
  <ellipse cx="495.24775" cy="128.68146" fill="#9f626b" id="svg_14" rx="5.43623" ry="9.96642"/>
  <ellipse cx="634.77762" cy="129.68146" fill="#9f626b" id="svg_15" rx="5.43623" ry="9.96642"/>
  <path d="m721.4252,612.69543s-82.44948,-15.40265 -87.8857,11.77849s91.50985,15.40265 91.50985,15.40265l-3.62415,-27.18114z" fill="#ffb8b8" id="svg_16" transform="translate(-49.50001 -116.97455)"/>
  <path d="m719.61312,426.05157s197.51632,157.65064 161.27479,195.70424s-173.95932,27.18119 -173.95932,27.18119l9.06038,-45.3019l79.73135,-9.06038l-39.86567,-39.86572l-36.24153,3.62415l0,-132.28158z" fill="#d0cde1" id="svg_17" transform="translate(-49.50001 -116.97455)"/>
  <path d="m427.86884,688.80263l25.36906,19.93284s18.12077,56.17437 45.30191,39.86568s-25.36907,-74.29515 -25.36907,-74.29515l-30.80529,-10.87246l-14.49661,25.36909z" fill="#ffb8b8" id="svg_18" transform="translate(-49.50001 -116.97455)"/>
  <path d="m453.2379,397.05835l-25.30065,7.61381s-175.83982,130.104 -183.08812,166.34551s34.42945,56.17433 34.42945,56.17433l157.65064,74.29513l16.30868,-43.48983l-74.29513,-38.05361s5.43623,-10.87245 -16.30868,-12.68453s-25.36909,-25.36903 -25.36909,-25.36903s43.48983,-67.04682 67.04682,-52.55021s30.8053,25.36907 30.8053,25.36907l18.12078,-157.65064z" fill="#d0cde1" id="svg_19" transform="translate(-49.50001 -116.97455)"/>
  <path d="m814.1,733.45544l0,6.07a13.34008,13.34008 0 0 1 -0.91,4.87a13.68227,13.68227 0 0 1 -0.97,2a13.4373,13.4373 0 0 1 -11.55,6.56l-446.55,0a13.43736,13.43736 0 0 1 -11.55,-6.56a13.68842,13.68842 0 0 1 -0.97,-2a13.34153,13.34153 0 0 1 -0.91,-4.87l0,-6.07a13.42641,13.42641 0 0 1 13.43,-13.43l25.74,0l0,-2.83a0.55908,0.55908 0 0 1 0.56,-0.56l13.43,0a0.55908,0.55908 0 0 1 0.56,0.56l0,2.83l8.39,0l0,-2.83a0.55908,0.55908 0 0 1 0.56,-0.56l13.43,0a0.55908,0.55908 0 0 1 0.56,0.56l0,2.83l8.4,0l0,-2.83a0.55908,0.55908 0 0 1 0.56,-0.56l13.43,0a0.55908,0.55908 0 0 1 0.56,0.56l0,2.83l8.39,0l0,-2.83a0.55908,0.55908 0 0 1 0.56,-0.56l13.43,0a0.55908,0.55908 0 0 1 0.56,0.56l0,2.83l8.39,0l0,-2.83a0.55908,0.55908 0 0 1 0.56,-0.56l13.43,0a0.55908,0.55908 0 0 1 0.56,0.56l0,2.83l8.4,0l0,-2.83a0.55908,0.55908 0 0 1 0.56,-0.56l13.43,0a0.55908,0.55908 0 0 1 0.56,0.56l0,2.83l8.39,0l0,-2.83a0.55908,0.55908 0 0 1 0.56,-0.56l105.2,0a0.55908,0.55908 0 0 1 0.56,0.56l0,2.83l8.4,0l0,-2.83a0.55908,0.55908 0 0 1 0.56,-0.56l13.43,0a0.56552,0.56552 0 0 1 0.56,0.56l0,2.83l8.39,0l0,-2.83a0.55908,0.55908 0 0 1 0.56,-0.56l13.43,0a0.55908,0.55908 0 0 1 0.56,0.56l0,2.83l8.39,0l0,-2.83a0.55908,0.55908 0 0 1 0.56,-0.56l13.43,0a0.55908,0.55908 0 0 1 0.56,0.56l0,2.83l8.4,0l0,-2.83a0.55908,0.55908 0 0 1 0.56,-0.56l13.43,0a0.557,0.557 0 0 1 0.55,0.56l0,2.83l8.4,0l0,-2.83a0.55908,0.55908 0 0 1 0.56,-0.56l13.43,0a0.55908,0.55908 0 0 1 0.56,0.56l0,2.83l8.39,0l0,-2.83a0.55908,0.55908 0 0 1 0.56,-0.56l13.43,0a0.55908,0.55908 0 0 1 0.56,0.56l0,2.83l39.17,0a13.42636,13.42636 0 0 1 13.43,13.43z" fill="#3f3d56" id="svg_20" transform="translate(-49.50001 -116.97455)"/>
  <rect fill="#3f3d56" height="2" id="svg_21" width="732.99951" x="161.44819" y="627.41618"/>
  <path d="m778.14246,477.82126l-166.44289,0l0,-3.43053l-75.47168,0l0,3.43053l-167.129,0a11.25861,11.25861 0 0 0 -11.25861,11.25861l0,227.9115a11.25864,11.25864 0 0 0 11.25861,11.25863l409.04357,0a11.25864,11.25864 0 0 0 11.25861,-11.25865l0,-227.91148a11.2586,11.2586 0 0 0 -11.25861,-11.25861z" fill="#3f3d56" id="svg_22" transform="translate(-49.50001 -116.97455)"/>
  <circle cx="524.44819" cy="440.41618" fill="none" id="svg_23" r="25" stroke="#d0cde1" stroke-miterlimit="10" stroke-width="2"/>
  <circle cx="516.44819" cy="449.41618" fill="#d0cde1" id="svg_24" r="25"/>
  <rect fill="#3f3d56" height="2.26159" id="svg_25" width="189" x="26.02015" y="663.55077"/>
  <rect fill="#3f3d56" height="2.26159" id="svg_26" width="189" x="851.02015" y="663.55077"/>
  <path d="m185.63919,707.69176c-19.911,32.5064 -13.06067,72.9409 -13.06067,72.9409s39.1325,-12.26879 59.04353,-44.7752s13.06067,-72.9409 13.06067,-72.9409s-39.1325,12.2688 -59.04353,44.7752z" fill="#3f3d56" id="svg_27" transform="translate(-49.50001 -116.97455)"/>
  <path d="m171.76594,780.90107l-1.13209,-0.17932c-0.40938,-0.06491 -41.158,-6.81651 -65.56214,-36.01491c-24.40427,-29.19937 -23.817,-70.4997 -23.809,-70.91351l0.02429,-1.14573l1.13209,0.17932c0.40939,0.06492 41.158,6.81651 65.56228,36.01588l0,0c24.40414,29.19841 23.81684,70.49874 23.80885,70.91255l-0.02428,1.14572z" fill="#f50057" id="svg_28" transform="translate(-49.50001 -116.97455)"/>
  <path d="m173.37365,781.92912l-1.09375,-0.34277c-0.39551,-0.124 -39.7207,-12.75586 -59.59766,-45.20605c-19.87695,-32.45118 -13.26269,-73.22266 -13.19433,-73.63086l0.1914,-1.12989l1.09375,0.34278c0.39551,0.124 39.72071,12.75586 59.59766,45.207l0,0c19.87695,32.45019 13.2627,73.22168 13.19434,73.62988l-0.19141,1.12991zm-72.081,-117.67773c-0.90528,6.84277 -4.51368,42.33594 13.09472,71.084c17.60938,28.74707 50.86719,41.65821 57.373,43.96192c0.90527,-6.84278 4.51367,-42.33594 -13.09473,-71.083l0,0c-17.60937,-28.74808 -50.86718,-41.65921 -57.37304,-43.96292l0.00005,0z" fill="#3f3d56" id="svg_29" transform="translate(-49.50001 -116.97455)"/>
  <circle cx="124.32091" cy="536.32762" fill="#3f3d56" id="svg_30" r="22"/>
  <polygon fill="#3f3d56" id="svg_31" points="399.789 258.254 273.582 131.051 214 131.051 214 129.051 274.417 129.051 274.711 129.348 401.211 256.848 399.789 258.254"/>
  <polygon fill="#3f3d56" id="svg_32" points="696.211 254.254 822.417 127.051 882 127.051 882 125.051 821.582 125.051 821.289 125.348 694.789 252.848 696.211 254.254"/>
  <rect fill="#d0cde1" height="28.87712" id="svg_33" width="145.99988" x="0.00009" y="68.33964"/>
  <rect fill="#d0cde1" height="28.87712" id="svg_34" width="145.99988" x="0.00009" y="112.65108"/>
  <rect fill="#d0cde1" height="28.87712" id="svg_35" width="145.99988" x="0.00009" y="156.96251"/>
  <rect height="28.87712" id="svg_36" opacity="0.15" width="60.39875" x="0.0001" y="68.33965"/>
  <rect height="28.87712" id="svg_37" opacity="0.15" width="19.55356" y="112.65105"/>
  <rect height="28.87712" id="svg_38" opacity="0.15" width="97.33325" x="0.00009" y="156.96251"/>
  <rect fill="#d0cde1" height="13.02985" id="svg_39" width="146.22388" x="954.7761" y="74.82702"/>
  <rect fill="#f50057" height="28.95522" id="svg_40" width="28.95522" x="899.99998" y="73.14045"/>
  <rect fill="#f50057" height="28.95522" id="svg_41" width="28.95522" x="899.99998" y="116.57329"/>
  <rect fill="#f50057" height="28.95522" id="svg_42" width="28.95522" x="899.99998" y="160.00612"/>
  <path d="m986.45507,213.07037l-30.95507,0l0,-30.95557l30.95508,0l-0.00001,30.95557zm-28.95508,-2l26.95508,0l0,-26.95557l-26.95507,0l-0.00001,26.95557z" fill="#3f3d56" id="svg_43" transform="translate(-49.50001 -116.97455)"/>
  <rect fill="#d0cde1" height="13.02985" id="svg_44" width="146.22388" x="954.7761" y="118.25985"/>
  <path d="m986.45507,256.503l-30.95507,0l0,-30.95509l30.95508,0l-0.00001,30.95509zm-28.95508,-2l26.95508,0l0,-26.95509l-26.95507,0l-0.00001,26.95509z" fill="#3f3d56" id="svg_45" transform="translate(-49.50001 -116.97455)"/>
  <rect fill="#d0cde1" height="13.02985" id="svg_46" width="146.22388" x="954.7761" y="161.69269"/>
  <path d="m986.45507,299.93561l-30.95507,0l0,-30.95508l30.95508,0l-0.00001,30.95508zm-28.95508,-2l26.95508,0l0,-26.95508l-26.95507,0l-0.00001,26.95508z" fill="#3f3d56" id="svg_47" transform="translate(-49.50001 -116.97455)"/>
  <circle cx="188.99998" cy="83.0509" fill="#f50057" id="svg_48" r="16"/>
  <circle cx="188.99998" cy="131.0509" fill="#f50057" id="svg_49" r="16"/>
  <circle cx="188.99998" cy="174.0509" fill="#f50057" id="svg_50" r="16"/>
  <path d="m230.5,213.02545a17,17 0 1 1 17,-17a17.019,17.019 0 0 1 -17,17zm0,-32a15,15 0 1 0 15,15a15.017,15.017 0 0 0 -15,-15z" fill="#3f3d56" id="svg_51" transform="translate(-49.50001 -116.97455)"/>
  <path d="m230.5,261.02545a17,17 0 1 1 17,-17a17.019,17.019 0 0 1 -17,17zm0,-32a15,15 0 1 0 15,15a15.017,15.017 0 0 0 -15,-15z" fill="#3f3d56" id="svg_52" transform="translate(-49.50001 -116.97455)"/>
  <path d="m230.5,304.02545a17,17 0 1 1 17,-17a17.019,17.019 0 0 1 -17,17zm0,-32a15,15 0 1 0 15,15a15.017,15.017 0 0 0 -15,-15z" fill="#3f3d56" id="svg_53" transform="translate(-49.50001 -116.97455)"/>
  <path d="m1038.5,713.02545l-2,0l0,-15a3.00328,3.00328 0 0 1 3,-3l5,0a1.00067,1.00067 0 0 0 1,-1l0,-10a1.00067,1.00067 0 0 0 -1,-1l-5,0a3.00328,3.00328 0 0 1 -3,-3l0,-5a1.00067,1.00067 0 0 0 -1,-1l-9,0a3.00328,3.00328 0 0 1 -3,-3l0,-1a1.00067,1.00067 0 0 0 -1,-1l-36,0a1.00067,1.00067 0 0 0 -1,1l0,1a3.00328,3.00328 0 0 1 -3,3l-9,0a1.00067,1.00067 0 0 0 -1,1l0,5a3.00328,3.00328 0 0 1 -3,3l-5,0a1.00067,1.00067 0 0 0 -1,1l0,10a1.00067,1.00067 0 0 0 1,1l6,0a3.00328,3.00328 0 0 1 3,3l0,15l-2,0l0,-15a1.00067,1.00067 0 0 0 -1,-1l-6,0a3.00328,3.00328 0 0 1 -3,-3l0,-10a3.00328,3.00328 0 0 1 3,-3l5,0a1.00067,1.00067 0 0 0 1,-1l0,-5a3.00328,3.00328 0 0 1 3,-3l9,0a1.00067,1.00067 0 0 0 1,-1l0,-1a3.00328,3.00328 0 0 1 3,-3l36,0a3.00328,3.00328 0 0 1 3,3l0,1a1.00067,1.00067 0 0 0 1,1l9,0a3.00328,3.00328 0 0 1 3,3l0,5a1.00067,1.00067 0 0 0 1,1l5,0a3.00328,3.00328 0 0 1 3,3l0,10a3.00328,3.00328 0 0 1 -3,3l-5,0a1.00067,1.00067 0 0 0 -1,1l0,15z" fill="#3f3d56" id="svg_54" transform="translate(-49.50001 -116.97455)"/>
  <path d="m1035.5,783.02545l-61,0a3.00328,3.00328 0 0 1 -3,-3l0,-43l2,0l0,43a1.00067,1.00067 0 0 0 1,1l61,0a1.00067,1.00067 0 0 0 1,-1l0,-43l2,0l0,43a3.00328,3.00328 0 0 1 -3,3z" fill="#3f3d56" id="svg_55" transform="translate(-49.50001 -116.97455)"/>
  <rect fill="#f50057" height="24" id="svg_56" rx="2" width="79" x="921.99998" y="603.0509"/>
  <path d="m1042,738.02545l-75,0a3.00328,3.00328 0 0 1 -3,-3l0,-20a3.00328,3.00328 0 0 1 3,-3l75,0a3.00328,3.00328 0 0 1 3,3l0,20a3.00328,3.00328 0 0 1 -3,3zm-75,-24a1.00067,1.00067 0 0 0 -1,1l0,20a1.00067,1.00067 0 0 0 1,1l75,0a1.00067,1.00067 0 0 0 1,-1l0,-20a1.00067,1.00067 0 0 0 -1,-1l-75,0z" fill="#3f3d56" id="svg_57" transform="translate(-49.50001 -116.97455)"/>
  <path d="m1002.5,660.02545l0,0a249.6283,249.6283 0 0 1 -2.09463,-54.11121l2.09463,-29.88879l0,0c-11.54175,22.96553 -8.93335,53.1922 0,83.99993l0,0.00007z" fill="#d0cde1" id="svg_58" transform="translate(-49.50001 -116.97455)"/>
  <path d="m1011.5,665.02545l0,0a183.49687,183.49687 0 0 1 -1.00779,-32.20905l1.00779,-17.79095l0,0c-5.55309,13.67 -4.29811,31.662 0,50z" fill="#d0cde1" id="svg_59" transform="translate(-49.50001 -116.97455)"/>
 </g>
</svg>