<svg width="888" height="580.72337" xmlns="http://www.w3.org/2000/svg" xmlns:svg="http://www.w3.org/2000/svg" xmlns:se="http://svg-edit.googlecode.com" data-name="Layer 1">
 <title>mobile_development</title>
 <g class="layer">
  <title>Layer 1</title>
  <path d="m148.55838,380.0849s10.80447,17.13629 6.9458,21.776s28.94958,4.75574 28.94958,4.75574s-4.92813,-24.9281 -3.47769,-30.66498l-32.41769,4.13324z" fill="#9e5560" id="svg_1"/>
  <circle cx="165.82548" cy="352.4157" r="33.87953" fill="#2f2e41" id="svg_2"/>
  <polygon points="245.51 536.052 245.51 556.137 265.594 551.952 263.921 537.726 245.51 536.052" fill="#9e5560" id="svg_3"/>
  <path d="m316.64249,539.39954l56.06912,9.20538l-14.2265,20.92133s-39.33206,-13.38965 -49.3743,-13.38965s7.53168,-16.73706 7.53168,-16.73706z" fill="#9e5560" id="svg_4"/>
  <path d="m346.44089,658.8689s41.84262,-48.53748 55.23227,-46.02692s19.24762,17.57391 19.24762,17.57391l7.53168,74.47992s-26.7793,2.5105 -26.7793,0s-5.02112,-56.06915 -5.02112,-56.06915s-39.33203,87.03265 -60.25339,29.28986l10.04224,-19.24762z" transform="translate(-156 -159.638)" fill="#d0cde1" id="svg_5"/>
  <path d="m277.65585,691.50616s0.83685,43.84265 25.94241,46.35315s52.72171,-18.737 52.72171,-18.737l45.19,-21.64941s53.55856,28.34424 69.45877,20.81256c0,0 16.73703,-17.57385 5.858,-22.59497s-0.83685,0 -0.83685,0l-64.43765,-33.47412s-12.5528,-3.34735 -34.31094,5.85803s-51.048,13.38965 -51.048,13.38965l-48.53745,10.04211z" transform="translate(-156 -159.63832)" fill="#d0cde1" id="svg_6"/>
  <circle cx="163.49846" cy="363.66048" r="25.10558" fill="#9e5560" id="svg_7"/>
  <path d="m355.48312,593.59442l-1.67371,35.14783s0.83685,46.02686 -6.69482,49.37427c-3.80768,1.69043 -11.45651,5.08801 -18.52792,8.80365c-5.30563,2.77838 -10.28491,5.72412 -13.06326,8.25977a9.36818,9.36818 0 0 0 -1.8829,2.1842c-3.34741,5.85797 -25.10559,5.02112 -30.12671,0.83685s-1.67371,5.02112 -5.85797,6.69482c-4.05042,1.62347 -9.66565,-11.64899 -6.2262,-31.4657c0.1088,-0.66107 0.23434,-1.33057 0.36823,-2.00842c3.84116,-19.20575 -2.19257,-65.20758 -1.26367,-82.9823a31.2726,31.2726 0 0 1 0.42682,-4.05035c2.51053,-13.38965 34.54526,-40.63757 40.53714,-29.0304c7.38098,14.3269 24.33566,1.23853 27.24789,-5.28058c16.73706,-0.83685 22.595,19.24762 22.595,19.24762l-5.85791,24.26874z" transform="translate(-156 -159.63832)" fill="#f50057" id="svg_8"/>
  <path d="m423.26819,708.24323s-13.38965,5.02112 -17.57391,4.18427s-8.3685,2.51056 -8.3685,7.53168s-5.02115,16.737 2.51056,17.57391s38.49521,-0.83685 45.18997,1.67371c0,0 30.12671,0.83685 27.61615,-11.71594s-15.06335,-11.71594 -15.06335,-11.71594s-34.31091,-1.67371 -34.31091,-7.53168z" transform="translate(-156 -159.63832)" fill="#2f2e41" id="svg_9"/>
  <path d="m521.17993,710.75378s1.67371,-5.02112 4.18427,-5.02112s22.59503,3.34741 25.10559,2.51056s31.80035,-2.51056 26.77924,11.71594s-21.75812,15.90021 -21.75812,15.90021s-30.12671,-3.34741 -34.31104,-2.51056s-19.24759,0 -16.73703,-4.18427s18.4108,-11.71594 16.73709,-18.41077z" transform="translate(-156 -159.63832)" fill="#2f2e41" id="svg_10"/>
  <path d="m445.00464,590.55115l4.59113,18.93835a1.18275,1.18275 0 0 1 -0.02301,0.63922l-20.82626,65.08203a1.18288,1.18288 0 0 1 -2.30194,-0.22693l-2.88107,-25.35345a1.18282,1.18282 0 0 1 0.05063,-0.5l19.11624,-58.66699a1.18289,1.18289 0 0 1 2.27429,0.08777z" transform="translate(-156 -159.63832)" fill="#3f3d56" id="svg_11"/>
  <polygon points="287.316 432.512 291.555 448.761 273.186 508.105 268.947 489.737 287.316 432.512" fill="#fff" id="svg_12"/>
  <path d="m350.76761,680.45978c0.70648,2.11945 73.4733,-0.70648 74.17978,-1.41296a15.33535,15.33535 0 0 0 1.55423,-2.82587c0.66412,-1.41302 1.27167,-2.82593 1.27167,-2.82593l-2.8259,-22.87561l-72.06039,-2.5575s-1.80154,19.38568 -2.16891,28.25897a21.19873,21.19873 0 0 0 0.04953,4.23889z" transform="translate(-156 -159.63832)" fill="#3f3d56" id="svg_13"/>
  <polygon points="259.763 493.975 261.176 513.757 229.385 513.757 229.385 493.975 259.763 493.975" opacity="0.1" id="svg_14"/>
  <polygon points="218.788 500.334 218.978 500.296 218.081 508.811 200.419 508.811 200.419 500.334 218.788 500.334" opacity="0.1" id="svg_15"/>
  <path d="m350.76761,680.45978c0.70648,2.11945 73.4733,-0.70648 74.17978,-1.41296a15.33535,15.33535 0 0 0 1.55423,-2.82587l-75.78351,0a21.19873,21.19873 0 0 0 0.0495,4.23883z" transform="translate(-156 -159.63832)" opacity="0.1" id="svg_16"/>
  <circle cx="171.43866" cy="315.37883" r="9.44184" fill="#2f2e41" id="svg_17"/>
  <path d="m324.59937,485.29456s-9.64664,16.04562 -32.07831,22.05231s-0.18323,39.71527 -0.18323,39.71527s-8.09036,-12.25769 3.57886,-25.23889s30.448,-21.85611 28.68268,-36.52869z" transform="translate(-156 -159.63832)" fill="#2f2e41" id="svg_18"/>
  <path d="m328.58667,686.92017c-2.06699,3.90814 -4.4939,7.96686 -4.90393,9.60712c-0.27618,1.11298 -3.33902,0.46863 -8.15933,-1.34735c-9.66562,-3.65704 -26.41943,-12.03394 -42.05185,-20.41083a13.20191,13.20191 0 0 1 -2.0419,-1.33899c0.1088,-0.66107 0.23434,-1.33057 0.36823,-2.00842c3.84116,-19.20575 -2.19257,-65.20758 -1.26367,-82.9823l7.12164,-2.37665l14.22647,13.38965l0,56.90601s36.8215,20.08441 39.33206,21.75812c1.28043,0.85358 -0.48538,4.74493 -2.62772,8.80365z" transform="translate(-156 -159.63832)" opacity="0.1" id="svg_19"/>
  <path d="m166.009,512.62024l13.38965,3.34741s15.06335,-18.41077 30.96356,-11.71594s-20.08447,20.08447 -20.08447,20.08447s-19.24759,10.04224 -26.77927,1.67371s2.51053,-13.38965 2.51053,-13.38965z" fill="#9e5560" id="svg_21"/>
  <path d="m203.66739,481.65668l22.595,11.71594s13.38965,-14.22653 21.75818,-3.34741s-24.26871,14.2265 -24.26871,14.2265s-28.453,-6.69482 -29.28986,-15.90021s9.20537,-6.69482 9.20537,-6.69482l0.00002,0z" fill="#9e5560" id="svg_20"/>
  <path d="m351.29886,561.79401c0.83685,0.83685 10.04224,7.53168 10.04224,7.53168s2.51056,31.80042 -0.83685,38.49524s-5.858,6.69482 -3.34741,10.04218s5.858,0.83685 2.51056,6.69482s-6.69479,5.02112 -4.18427,7.53168s1.67371,3.34741 1.67371,3.34741l10.04224,8.36853s-6.16113,9.81323 -13.95966,9.09088s-14.49335,-38.38074 -14.49335,-38.38074l12.5528,-52.72168z" transform="translate(-156 -159.63832)" fill="#f50057" id="svg_22"/>
  <path d="m277.65585,581.87848l-7.53168,2.51056s-20.08447,73.64301 3.34741,86.1958s49.3743,25.10559 50.21115,21.75818s10.04227,-16.737 7.53165,-18.41077s-39.33206,-21.75818 -39.33206,-21.75818l0,-56.90601l-14.22647,-13.38959z" transform="translate(-156 -159.63832)" fill="#f50057" id="svg_23"/>
  <polygon points="132.953 452.785 131.28 492.954 175.633 513.876 134.627 492.954 132.953 452.785" opacity="0.1" id="svg_24"/>
  <path d="m934.39972,293.39832l0,65.67999a2.29614,2.29614 0 0 1 -2.28998,2.29001l-1.62988,0l0,342.14999a35.702,35.702 0 0 1 -35.70007,35.70001l-213.78998,0a35.69346,35.69346 0 0 1 -35.69006,-35.70001l0,-330.14999l-1.18005,0a1.6176,1.6176 0 0 1 -1.62,-1.61005l0,-37.37991a1.61971,1.61971 0 0 1 1.62,-1.62006l1.18005,0l0,-14.07993l-1.19006,0a1.69647,1.69647 0 0 1 -1.68994,-1.69998l0,-36.87003a1.69432,1.69432 0 0 1 1.68994,-1.69l1.19006,0l0,-19.21997l-1.21008,0a1.498,1.498 0 0 1 -1.5,-1.5l0,-20.12001a1.5066,1.5066 0 0 1 1.5,-1.51001l1.21008,0l0,-40.74002a35.69136,35.69136 0 0 1 35.69006,-35.68999l213.78992,0a35.69991,35.69991 0 0 1 35.70007,35.68999l0,95.78001l1.62988,0a2.29609,2.29609 0 0 1 2.29004,2.28995z" transform="translate(-156 -159.63832)" fill="#3f3d56" id="svg_25"/>
  <rect x="604.90335" y="18.3068" width="39.82343" height="8.08642" rx="2.54189" fill="#e6e8ec" id="svg_26"/>
  <circle cx="655.33477" cy="22.35" r="4.58665" fill="#e6e8ec" id="svg_27"/>
  <path d="m757.3847,42.74982l0,504.09002a22.65045,22.65045 0 0 1 -22.65002,22.63995l-204.64996,0a22.61062,22.61062 0 0 1 -22.65002,-22.63995l0,-504.09002a22.64906,22.64906 0 0 1 22.65002,-22.64999l30.63,0l0,3.92999a18.65015,18.65015 0 0 0 18.64996,18.65001l104.08002,0a18.6501,18.6501 0 0 0 18.65002,-18.65001l0,-3.92999l32.63995,0a22.64266,22.64266 0 0 1 22.65002,22.64999z" fill="#fff" id="svg_28"/>
  <rect x="528.82677" y="351.95881" width="208" height="27" fill="#e6e6e6" id="svg_29"/>
  <rect x="528.82677" y="399.95881" width="208" height="27" fill="#e6e6e6" id="svg_30"/>
  <rect x="528.82677" y="447.95881" width="208" height="27" fill="#e6e6e6" id="svg_31"/>
  <circle cx="713.82677" cy="90.95881" r="20" fill="#f50057" id="svg_32"/>
  <rect x="528.40973" y="157.95881" width="208" height="138" fill="#e6e6e6" id="svg_33"/>
  <rect y="578.48265" width="888" height="2.24072" fill="#3f3d56" id="svg_38"/>
  <rect fill="#f50057" stroke-width="null" stroke-dasharray="null" stroke-linejoin="null" stroke-linecap="null" x="562" y="189.27661" width="148" height="78" id="svg_39"/>
  <path fill="#b42357" stroke-width="null" stroke-dasharray="null" stroke-linejoin="null" stroke-linecap="null" d="m562.06006,240.55879l73.99976,-50.87944l74.00012,50.87944l-147.99988,0z" id="svg_42" transform="rotate(-179.918 636.06 215.119)"/>
 </g>
</svg>