<?xml version="1.0"?>
<svg width="1046" height="572.18972" xmlns="http://www.w3.org/2000/svg" xmlns:svg="http://www.w3.org/2000/svg" xmlns:se="http://svg-edit.googlecode.com" data-name="Layer 1">
 <title>fitting_piece</title>
 <g class="layer">
  <title>Layer 1</title>
  <circle cx="923" cy="333.18972" fill="#f2f2f2" id="svg_1" r="123"/>
  <circle cx="903" cy="315.18972" fill="#f50057" id="svg_2" r="123"/>
  <rect fill="#3f3d56" height="1.8747" id="svg_3" width="158.41249" x="715.73" y="569.86528"/>
  <path d="m719,583.09486c0,-84.36426 68.63574,-153 153,-153s153,68.63574 153,153s-68.63574,153 -153,153s-153,-68.63574 -153,-153zm2,0c0,83.26172 67.73828,151 151,151s151,-67.73828 151,-151s-67.73828,-151 -151,-151s-151,67.73828 -151,151z" fill="#3f3d56" id="svg_4" transform="translate(-77 -163.90514)"/>
  <path d="m673,145.000004l-673,-100l-0.5,525.5l874,0l-200.5,-425.5zm-494,195c-0.33759,0 -0.66675,-0.03308 -1,-0.05047l0,40.05047l-108,0l0,-108l42,0a19,19 0 0 1 38,0l28,0l0,30.05048c0.33325,-0.0174 0.66241,-0.05048 1,-0.05048a19,19 0 0 1 0,38zm413.5,-29.5a155.36517,155.36517 0 0 1 -14.16,65.02q-1.515,3.315 -3.19,6.54a155.10138,155.10138 0 0 1 -15.77,24.56q-4.62,5.895 -9.77,11.31q-3.77994,3.99 -7.84,7.7a155.40769,155.40769 0 0 1 -85.33,39.61a158.02065,158.02065 0 0 1 -19.94,1.26a155.9951,155.9951 0 0 1 -13.15,-311.45c0.35,-0.03 0.71,-0.06 1.07,-0.09c2.72,-0.21 5.47,-0.35 8.23,-0.41c1.28,-0.03 2.56,-0.05 3.85,-0.05a156.33514,156.33514 0 0 1 26.04,2.17c1.19,0.19 2.37,0.41 3.55,0.63c0.73,0.14 1.45,0.29 2.17,0.44a156.03025,156.03025 0 0 1 124.24,152.75l0,0.01z" fill="#3f3d56" id="svg_5"/>
  <rect fill="#3f3d56" height="2.01266" id="svg_6" width="179.12676" x="651.26101" y="58.04634"/>
  <rect fill="#3f3d56" height="2.01266" id="svg_7" width="179.12676" x="651.26101" y="72.13496"/>
  <rect fill="#3f3d56" height="2.01266" id="svg_8" width="179.12676" x="651.26101" y="86.22358"/>
  <path d="m875,571.000004l-876,0l0,-572l876,0l0,572zm-874,-2l872,0l0,-568l-872,0l0,568z" fill="#3f3d56" id="svg_9"/>
  <path d="m512.25438,220.0577l-0.00008,0c-30.18129,8.176 -47.29253,41.9566 -38.219,75.4512l11.528,42.55524l13.088,-3.54548l3.306,-17.81969l2.37688,16.28022l84.1249,-22.789l3.00548,-16.19972l2.16084,14.80019l9.47155,-2.56579l-9.05153,-33.41349c-10.44118,-38.54338 -47.0603,-62.16205 -81.79104,-52.75368z" fill="#2f2e41" id="svg_10" transform="translate(-77 -163.90514)"/>
  <polygon fill="#ffb8b8" id="svg_11" points="545.441 412.19 535.441 466.19 568.441 461.19 569.941 404.69 545.441 412.19"/>
  <polygon fill="#9f626b" id="svg_13" points="435.9410095214844,145.69000244140625 433.9410095214844,165.69000244140625 417.9410095214844,174.69000244140625 459.9410095214844,267.69000244140625 491.9410095214844,190.69000244140625 470.9410095214844,174.69000244140625 468.9410095214844,136.69000244140625 435.9410095214844,145.69000244140625 "/>
  <circle cx="446.44053" cy="116.18972" fill="#9f626b" id="svg_12" r="36"/>
  <path d="m631.44,365.190004c-1.26,20.8 -36.69,37.23 -62.71,46.53c-7.5,2.69 -14.22,4.78 -19.12,6.21c-3.05,0.89 -5.39,1.53 -6.77,1.9c-0.91,0.24 -1.4,0.36 -1.4,0.36l0,-22l-85,7l0,60.05a158.02065,158.02065 0 0 1 -19.94,1.26a155.30173,155.30173 0 0 1 -75.17,-19.27q-0.855,-11.265 -1.89,-23.04c-0.74,-8.46 -1.06,-16.5 -1.03,-24.12c0.24,-59.59 21.97,-93.62 30.58,-104.76a50.24807,50.24807 0 0 1 3.45,-4.12l5,-13l-3.62,-23.08l-12.22,-77.92l-0.16,-1c4.2,-3.68 15.33,-6.03 24.93,-7.42c6.44,-0.94 12.2,-1.45 14.74,-1.66c0.8,-0.06 1.28,-0.09 1.37,-0.1l0.01,0l40.95,74.18l14.1,-63.95l38.9,17.95s-6,25 -6,46a33.05621,33.05621 0 0 1 -1.08,8.32a48.10155,48.10155 0 0 1 -8.31,16.61a66.79781,66.79781 0 0 1 -11.61,12.07l-8,22l8,30l55.07,-16.42l19.43,-5.79a38.19412,38.19412 0 0 1 4.99,-1.13a38.93845,38.93845 0 0 1 39.87,19.02l22.64,39.32z" fill="#2f2e41" id="svg_14"/>
  <path d="m615.44053,621.09486s28.61454,2.807 34.30727,-10.09651l28.69273,23.09651s51.96539,13.91668 23,26c-26.99951,11.26324 -53.99969,-0.7619 -54,2c0,0 -8,-7 -17,-2s-36,0 -35,-8s5,-37 20,-31z" fill="#2f2e41" id="svg_15" transform="translate(-77 -163.90514)"/>
  <path d="m532.31548,232.55556c-7.4008,-5.57865 -16.70584,-7.86134 -25.74,-5.41405l-1.0729,0.29065c-20.68631,5.60381 -32.385,28.8653 -26.12983,51.95606l0,0.00009l6.93144,-1.87769l-1.18876,-8.82379l3.94945,8.07594l41.11,-11.13647l1.49149,-8.14158l1.09167,7.44181l8.08751,-2.19086q13.27662,26.57985 -1.036,60.63345l13.77687,-3.73208l2.98288,-16.28312l2.18344,14.88359l26.26208,-7.11425l-3.81638,-34.55894c-6.72718,-24.83332 -26.86061,-41.98278 -48.88296,-44.00876z" fill="#2f2e41" id="svg_16" transform="translate(-77 -163.90514)"/>
  <circle cx="463.94053" cy="46.68972" fill="#2f2e41" id="svg_17" r="18"/>
  <path d="m539.94053,220.59486a17.98986,17.98986 0 0 1 -6.33331,-34.83185a17.98911,17.98911 0 1 0 8.66662,34.6637a18.07118,18.07118 0 0 1 -2.33331,0.16815z" fill="#2f2e41" id="svg_18" transform="translate(-77 -163.90514)"/>
  <ellipse cx="469.44053" cy="116.18972" fill="#9f626b" id="svg_19" rx="4.5" ry="6.5"/>
  <path d="m371.44053,237.189724l-3,40s-14,22 -17,69l-1,29s-21,41 -4,40s16,-39 16,-39l30,-87l0,-42l-21,-10z" fill="#9f626b" id="svg_20"/>
  <path d="m389.44053,178.189724l-7,0s-11,7 -20,37s-10,31 -10,31l47,11l-10,-79z" fill="#2f2e41" id="svg_21"/>
  <circle cx="616.16641" cy="183.06693" fill="#d0cde1" id="svg_22" r="9.1137"/>
  <circle cx="669.36854" cy="352.73453" fill="#d0cde1" id="svg_23" r="4.05053"/>
  <circle cx="612.36854" cy="541.73453" fill="#d0cde1" id="svg_24" r="4.05053"/>
  <circle cx="70.36854" cy="529.73453" fill="#d0cde1" id="svg_25" r="4.05053"/>
  <circle cx="261.36854" cy="183.73453" fill="#d0cde1" id="svg_26" r="4.05053"/>
  <polygon fill="#d0cde1" id="svg_27" points="671.621 256.446 669.596 256.446 669.596 254.421 668.583 254.421 668.583 256.446 666.558 256.446 666.558 257.459 668.583 257.459 668.583 259.484 669.596 259.484 669.596 257.459 671.621 257.459 671.621 256.446"/>
  <polygon fill="#d0cde1" id="svg_28" points="740.621 446.446 738.596 446.446 738.596 444.421 737.583 444.421 737.583 446.446 735.558 446.446 735.558 447.459 737.583 447.459 737.583 449.484 738.596 449.484 738.596 447.459 740.621 447.459 740.621 446.446"/>
  <polygon fill="#d0cde1" id="svg_29" points="510.621 530.446 508.596 530.446 508.596 528.421 507.583 528.421 507.583 530.446 505.558 530.446 505.558 531.459 507.583 531.459 507.583 533.484 508.596 533.484 508.596 531.459 510.621 531.459 510.621 530.446"/>
  <polygon fill="#d0cde1" id="svg_30" points="378.621 138.446 376.596 138.446 376.596 136.421 375.583 136.421 375.583 138.446 373.558 138.446 373.558 139.459 375.583 139.459 375.583 141.484 376.596 141.484 376.596 139.459 378.621 139.459 378.621 138.446"/>
  <polygon fill="#d0cde1" id="svg_31" points="20.621 217.446 18.596 217.446 18.596 215.421 17.583 215.421 17.583 217.446 15.558 217.446 15.558 218.459 17.583 218.459 17.583 220.484 18.596 220.484 18.596 218.459 20.621 218.459 20.621 217.446"/>
  <polygon fill="#d0cde1" id="svg_32" points="59.621 146.446 57.596 146.446 57.596 144.421 56.583 144.421 56.583 146.446 54.558 146.446 54.558 147.459 56.583 147.459 56.583 149.484 57.596 149.484 57.596 147.459 59.621 147.459 59.621 146.446"/>
  <polygon fill="#d0cde1" id="svg_33" points="342.621 533.446 340.596 533.446 340.596 531.421 339.583 531.421 339.583 533.446 337.558 533.446 337.558 534.459 339.583 534.459 339.583 536.484 340.596 536.484 340.596 534.459 342.621 534.459 342.621 533.446"/>
  <polygon fill="#d0cde1" id="svg_34" points="190.621 115.446 188.596 115.446 188.596 113.421 187.583 113.421 187.583 115.446 185.558 115.446 185.558 116.459 187.583 116.459 187.583 118.484 188.596 118.484 188.596 116.459 190.621 116.459 190.621 115.446"/>
  <polygon fill="#d0cde1" id="svg_35" points="23.621 348.446 21.596 348.446 21.596 346.421 20.583 346.421 20.583 348.446 18.558 348.446 18.558 349.459 20.583 349.459 20.583 351.484 21.596 351.484 21.596 349.459 23.621 349.459 23.621 348.446"/>
  <polygon fill="#d0cde1" id="svg_36" points="176.621 235.446 174.596 235.446 174.596 233.421 173.583 233.421 173.583 235.446 171.558 235.446 171.558 236.459 173.583 236.459 173.583 238.484 174.596 238.484 174.596 236.459 176.621 236.459 176.621 235.446"/>
  <polygon fill="#d0cde1" id="svg_37" points="179.621 525.446 177.596 525.446 177.596 523.421 176.583 523.421 176.583 525.446 174.558 525.446 174.558 526.459 176.583 526.459 176.583 528.484 177.596 528.484 177.596 526.459 179.621 526.459 179.621 525.446"/>
  <polygon fill="#d0cde1" id="svg_38" points="270.621 460.446 268.596 460.446 268.596 458.421 267.583 458.421 267.583 460.446 265.558 460.446 265.558 461.459 267.583 461.459 267.583 463.484 268.596 463.484 268.596 461.459 270.621 461.459 270.621 460.446"/>
  <polygon fill="#d0cde1" id="svg_39" points="771.621 538.446 769.596 538.446 769.596 536.421 768.583 536.421 768.583 538.446 766.558 538.446 766.558 539.459 768.583 539.459 768.583 541.484 769.596 541.484 769.596 539.459 771.621 539.459 771.621 538.446"/>
  <circle cx="27" cy="21" fill="#f50057" id="svg_40" r="10"/>
  <circle cx="57" cy="21" fill="#f50057" id="svg_41" r="10"/>
  <circle cx="87" cy="21" fill="#f50057" id="svg_42" r="10"/>
  <rect fill="#d0cde1" height="2.01266" id="svg_43" width="179.12676" x="480.26101" y="498.22358"/>
  <rect fill="#f50057" height="108" id="svg_44" width="108" x="472" y="360"/>
  <path d="m570,607.90514l0,-84l-2,0l0,86l89,0l0,-2l-87,0z" fill="#d0cde1" id="svg_45" transform="translate(-77 -163.90514)"/>
  <path d="m535.44053,234.189724l16,39s17,20 20,42l5,26s12,46 -7,44s-14,-46 -14,-46l-3,-13l-17,-28l-25.08453,-47.6803l25.08453,-16.3197z" fill="#9f626b" id="svg_46"/>
  <polygon fill="#2f2e41" id="svg_47" points="504.441 192.19 517.441 196.19 545.441 238.19 494.441 272.19 504.441 192.19"/>
  <circle cx="532" cy="403" fill="#d0cde1" id="svg_48" r="25"/>
  <circle cx="526" cy="357" fill="#f50057" id="svg_49" r="19"/>
  <circle cx="580" cy="410" fill="#f50057" id="svg_50" r="19"/>
 </g>
</svg>